<!--
	Created with Bing Image Creator, vectorized with Recraft.ai and optimized with SVGOMG
-->
<svg xmlns="http://www.w3.org/2000/svg" viewBox="192 192 640 640">
	<path fill="#FECF02" d="M508.3 209.2C586 207 664.7 241.2 721 294l5.3 5 5.1 5.3q2.6 2.6 5 5.3l5 5.5 4.7 5.5 4.6 5.7 4.5 5.8 4.3 5.9 4.2 6 4 6.1 4 6.2 3.7 6.3 3.6 6.4q1.8 3.2 3.4 6.5l3.3 6.5 3.1 6.7 3 6.7 2.7 6.7q1.4 3.4 2.6 6.9l2.5 6.9 2.3 7 2 7 2 7 1.8 7.1 1.6 7.2 1.4 7.2 1.2 7.2 1 7.2 1 7.3.6 7.3.6 7.3.3 7.3c2.6 85-22.8 159.7-81.7 222l-5.3 5.4-5.4 5.3-5.6 5.2q-2.8 2.6-5.7 5l-5.8 5-6 4.7-6 4.6q-3 2.3-6.2 4.4l-6.2 4.3-6.4 4.2-6.5 4q-3.2 2-6.6 3.8l-6.6 3.7-6.8 3.5-6.8 3.3-7 3.1q-3.4 1.6-7 3-3.4 1.5-7 2.8l-7.1 2.7-7.2 2.4-7.3 2.3-7.3 2.1-7.3 2-7.4 1.7-7.5 1.6-7.5 1.3q-3.7.7-7.5 1.2-3.7.6-7.5 1l-7.6.8-7.5.7-7.6.4-7.6.3c-14.4 0-29-.5-43.1-2.4l-6-.8-5.8-1-5.8-1-5.8-1.3-5.8-1.3-5.7-1.4-5.7-1.5-5.7-1.6-5.7-1.8-5.6-1.8-5.6-2-5.6-2q-2.8-1-5.5-2.2-2.8-1-5.5-2.2l-5.4-2.4-5.4-2.5q-2.7-1.2-5.3-2.6l-5.3-2.6-5.3-2.8-5.1-2.9-5.2-3-5-3-5-3.2-5-3.2-4.9-3.4-4.8-3.4-4.7-3.6-4.7-3.6-4.7-3.7-4.5-3.8-4.5-3.9-4.4-4-5.3-5.1-5.3-5.3q-2.6-2.6-5.1-5.4l-5-5.5-4.8-5.6-4.7-5.8-4.6-5.8-4.4-6-4.3-6.1-4-6.2q-2.1-3.1-4-6.3-2-3.1-3.8-6.4l-3.7-6.4-3.5-6.6-3.3-6.7-3.1-6.7-3-6.8q-1.5-3.4-2.8-6.9l-2.7-7-2.5-7-2.3-7-2-7.1-2-7.2-1.8-7.2q-.9-3.6-1.6-7.3-.8-3.6-1.4-7.3l-1.3-7.3-1-7.3-.9-7.4-.7-7.4-.5-7.4-.3-7.5a304.4 304.4 0 0 1 82-220.4l5.3-5.6 5.4-5.3 5.6-5.3 5.6-5 5.9-5q2.9-2.5 5.9-4.8l6-4.7 6.2-4.5 6.3-4.4 6.3-4.2 6.5-4 6.6-3.9 6.7-3.7 6.7-3.5q3.4-1.8 6.9-3.4 3.4-1.7 6.9-3.2l7-3 7-3 7.2-2.6 7.3-2.5 7.2-2.3 7.4-2.2 7.3-2 7.5-1.7 7.4-1.6 7.5-1.4 7.6-1.2q3.7-.6 7.5-1l7.6-.9 7.6-.6 7.6-.5 7.7-.3Z"/>
	<path fill="#F5B608" d="M267.7 545.4c21.6 19.3 43.8 38 65.7 57l24.2 21c3.2 2.8 6.3 6.1 9.9 8.5 3 2 6.3 3.3 10 3.2a17 17 0 0 0 11.7-5.5c3.6-3.9 5-9 4.7-14.2-.2-3-1.1-6-2.2-8.8 6.4 1.5 17.6 10.6 24 14.5q8.7 5 17.6 9.8c5.8 3 14.8 5.9 19.1 10.7.3 1.3 0 1.3-.6 2.4l-1-.4c-5.5-2.2-16.8-10.3-22.5-8.6a5.2 5.2 0 0 0-3 3.1c-1 2.5-.2 5.4.9 7.7 3.2 6.7 43.3 33.8 52.8 41.7-3.8 3.5-8 7.5-12.4 10.3-1.2-4-20.4-20.5-24.6-25a31 31 0 0 1-15.5 13c-4.9 2-11.3 2.8-16.2.5-7.4-3.4-15.1-12.2-21.4-17.6q-33-28.4-64.3-58.7a641.5 641.5 0 0 1-48.6-50c-3-3.4-7.4-7.8-8.8-12-.4-1.2 0-1.5.5-2.6Z"/>
	<path fill="#19252D" d="M529.4 653c4.8-1.5 10.4-1.8 15.3-2.4 7.6-1 15.4-2.3 22.8-4.5a87 87 0 0 0 13.8-5.6c3.8-2 8.5-5.2 12.8-6 1.3-.3 2.7 0 3.8.6 1.5 1 2.3 2.7 2.5 4.4.3 2.9-.5 6.4-2.3 8.7-4.6 5.6-16.8 13.3-23 18-9.3 7-18.6 15-28.4 21.2 7.2 6.2 14.8 12 22.3 17.8 5 4 11 7.8 14.9 12.9 2.3 3 3.8 6.4 4.1 10.1.5 5-1.2 9.5-4.4 13.2-3.5 4-8.3 6.6-13.6 6.7-3 .1-5.2-.7-7.8-2.1-7.8-4.5-15.2-11.5-22.3-17.1-9-7.2-18.6-14-27.4-21.5l-31.5 25c-6.2 4.8-12.6 10.8-19.7 14.3-2.5 1.3-5.2 1.9-8 1.6-4.6-.6-9.6-3.8-12.3-7.4q-.6-.7-1-1.5l-.9-1.6-.7-1.7-.5-1.7-.3-1.8-.2-1.8V729l.2-1.8c1.5-10.5 20.4-23 29-29.4 4.4-2.8 8.6-6.8 12.4-10.3-9.5-8-49.6-35-52.8-41.7-1.1-2.3-1.8-5.2-.9-7.7a5.2 5.2 0 0 1 3-3c5.7-1.8 17 6.3 22.6 8.5l.9.4q6.4 2.2 13 3.8 6.6 1.5 13.3 2.4c6.3 1 13.2 1.2 19.3 3 6.9-.9 24.7-.6 32-.1Z"/>
	<path fill="#F5B608" d="M497.4 653.3c6.9-1 24.7-.7 32-.2l-16 12.7-16-12.5Z"/>
	<path fill="#19252D" d="M267.7 545.4c-6.2-5.7-13.8-11.3-14.5-20.4-.4-6 1.3-10.4 5.2-14.7 5.5-6.2 12.5-11.5 18.7-16.8l36.4-31.4 35.9-31.2c5.5-4.8 11-10.2 17-14.5 2.8-2 5.7-3.7 9.3-3.9 4.7-.3 9.5 1.8 12.9 5a18 18 0 0 1 5.3 13.2c0 5.7-2 10-6 13.8-6.4 6.2-13.8 11.7-20.5 17.5L319 503.6c-7.1 6.2-15.4 12-21.7 18.9 4.7 7.2 13.2 13.2 19.6 19q23.4 21 47.5 41.3c8.8 7.4 18.7 14.6 26.4 23l.8.8c1.1 2.8 2 5.7 2.2 8.8.4 5.2-1.1 10.3-4.7 14.2a17 17 0 0 1-11.7 5.5c-3.7 0-7-1.2-10-3.2-3.6-2.4-6.7-5.7-10-8.5l-24.1-21c-21.9-19-44-37.7-65.7-57ZM449.8 331c-6-5-11.8-9.5-12.5-17.9a19.3 19.3 0 0 1 4.8-14.6c3.3-3.5 8.6-6.1 13.5-6 2.8 0 5.4 1.3 7.8 2.8 8 5 15.4 11.9 22.8 17.7 8.8 6.9 18.3 13.5 26.6 20.9 11-8.6 21.8-17.3 32.6-26 5.1-4 10.5-9.3 16.2-12.5 3.5-2 7.2-3 11.2-2.5q.5 0 .9.2l.9.1.8.3.9.3.8.3.8.3.8.5.8.4.7.5.8.5.6.6.7.6.6.6q.4.3.6.7l.6.7.5.7.6.8.5.8.4.9.4.8.4 1 .3.9.3.9.2 1 .2.9.1 1 .1 1v2.9l-.1.9-.2 1c-.6 2.7-1.8 5-3.5 7.3-8.5 10.7-28 22.6-38.6 33 10 8.9 20.7 17.3 31.3 25.7 6.5 5.2 14.4 10.3 19.9 16.6 1.8 2 3 4.4 3.2 7.1a8 8 0 0 1-2.2 6.1c-.9 1-2 1.6-3.4 1.6-4.6-.1-15.7-6.9-21-8.7-6.5-2.3-13.5-3.8-20.3-5.2-6-1.2-13.7-1.5-19-4.4-2.6 1.4-8 .2-10.9 0q-7.7-.3-15.5 0c-5.2.2-11.6 1.4-16.6.3-5 2.4-12.5 2.6-18 3.6-6.7 1.2-13.8 2.6-20.3 4.8-5 1.7-19.6 9.3-23.7 9-.9 0-2-.8-2.5-1.5-1.6-2-2-4.8-1.6-7.2.5-2.9 2.6-5 4.5-6.9 5.7-5.5 13-10 19.3-14.9 7-5.3 13.5-11.2 20.7-16.3-1-2.7-3.6-5.2-5.4-7.4-5.5-6.6-15.3-17.4-14.4-26.6Z"/>
	<path fill="#F5B608" d="M449.8 331c10.4 8 21.1 16 30.9 24.7-3.6 3.3-7.3 6.3-11.1 9.3-1-2.7-3.6-5.2-5.4-7.4-5.5-6.6-15.3-17.4-14.4-26.6ZM512.7 377 534 394c-2.5 1.4-7.9.2-10.8 0q-7.7-.3-15.5 0c-5.2.2-11.6 1.4-16.6.3 7-6 14.4-11.5 21.5-17.5Z"/>
	<path fill="#19252D" d="M646.3 452.8c-6.6-5.6-15-11-15.8-20.5-.4-5 1.6-9.9 4.8-13.6 3.1-3.5 7.8-6.1 12.5-6.3 3.6-.2 6.5 1.2 9.3 3.2 6.6 4.6 12.7 10.5 18.7 15.7q19.9 17.2 39.5 34.6l34.6 29.7c5.3 4.5 10.9 9 15.8 13.8 4 3.8 6.3 8.6 6.3 14.2a18 18 0 0 1-5.2 13c-6.4 6.1-13.5 11.8-20.2 17.7q-23 20.4-46.5 40.4l-28 24.2c-5.6 4.8-11 10-17.2 14a12.6 12.6 0 0 1-8 2.1h-1.6l-1.6-.3-1.5-.5q-.8-.2-1.5-.6l-1.5-.7-1.3-.9-1.3-1-1.1-1.1c-3.5-4-5.1-9.1-4.8-14.3.4-6.7 4-11.6 9-15.8 16-13.6 32.3-27 48.3-40.9 9.9-8.5 19.5-17.6 29.6-25.9-1.4-3.9-71.5-69.1-79.4-75.3 2.7-1.7 5.5-3.1 8.1-4.9Z"/>
	<path fill="#F5B608" d="m646.3 452.8 50 43.2 20.7 18.1c3.5 3 7.3 6 10.6 9.1-3 3.6-6.5 6.8-10 9.8-1.4-3.9-71.5-69.1-79.4-75.3 2.7-1.7 5.5-3.1 8.1-4.9Z"/>
	<path fill="#19252D" d="M504.8 429.2h.3l2.3-.2 2.3-.1 2.3-.1h4.6l2.3.1 2.3.2q1.2 0 2.3.2l2.3.3 2.3.3 2.3.4 2.3.4 2.2.5 2.3.6 2.2.6 2.2.6 2.2.8 2.2.7 2.1.8 2.2 1 2.1.8 2.1 1 2 1 2.1 1.1 2 1.1 2 1.2 2 1.2 1.9 1.3 1.9 1.3 1.9 1.4 1.8 1.4 1.8 1.5 1.8 1.5 1.7 1.5 1.7 1.6 1.6 1.6 1.6 1.7 1.6 1.7 1.5 1.7 1.5 1.8 1.5 1.9 1.3 1.8 1.4 1.9 1.3 2 1.2 1.9 1.2 2 1.2 2 1 2 1.1 2.1 1 2.1 1 2.1.8 2.2.9 2.1.7 2.2.8 2.2.6 2.2.7 2.3.5 2.2.5 2.3.4 2.3q.3 1.1.4 2.3l.4 2.3.2 2.3q.2 1.1.2 2.3l.2 2.3.2 2.4v9.6l-.2 2.3-.3 2.4-.2 2.4-.4 2.3-.4 2.4-.4 2.3-.5 2.4-.6 2.3-.6 2.3-.7 2.3-.7 2.2-.8 2.3-.8 2.2-1 2.2-.9 2.2-1 2.2-1 2-1.2 2.2-1.1 2-1.3 2.1-1.2 2-1.3 2-1.4 2-1.4 2-1.5 1.8q-.7 1-1.5 1.8-.7 1-1.5 1.8l-1.5 1.7-1.6 1.7-1.7 1.6-1.6 1.6-1.8 1.5-1.7 1.5-1.8 1.5-1.8 1.4-1.9 1.4-1.9 1.3-2 1.3-1.9 1.2-2 1.2-2 1.1-2 1.1-2 1-2.2 1-2.1 1-2.1.8-2.2.8-2.2.8-2.2.7-2.2.6-2.2.6-2.3.6-2.2.5-2.3.4-2.3.4-2.3.3-2.3.3-2.3.2a96 96 0 0 1-67.9-19.7l-1.8-1.5-1.8-1.6-1.7-1.5-1.8-1.7-1.6-1.7-1.7-1.7-1.5-1.7-1.6-1.8-1.5-1.8-1.4-2-1.5-1.8-1.3-2-1.3-2-1.3-2-1.2-2-1.2-2-1-2.1-1.1-2.1-1-2.2-1-2.1-.9-2.2-.8-2.2-.8-2.3-.8-2.2-.6-2.3-.7-2.3-.5-2.3-.5-2.3-.5-2.3-.4-2.3-.3-2.4-.3-2.3a96.5 96.5 0 0 1 19.8-69.8c18-22.1 39.3-32 67.2-35Z"/>
	<path fill="#F7F6EB" d="M480 461.7a26 26 0 0 1 17.3 4.7l1 .8 1 .8 1 .9.8.9.9 1 .8 1 .7 1 .7 1.1.6 1.1.6 1.2.5 1.1.4 1.2q.3.6.4 1.3l.4 1.2.2 1.2.2 1.3.2 1.3V488.7q0 .7-.2 1.3 0 .7-.2 1.3l-.2 1.3-.3 1.2-.4 1.3-.5 1.2-.5 1.2-.5 1.2-.6 1.1-.7 1.1-.7 1.1-.8 1a26.5 26.5 0 0 1-19 9.8c-5.2.5-11.7-1.5-15.9-4.5A28 28 0 0 1 456 490c-.9-6.6 1.1-12.8 5-18.1a26.1 26.1 0 0 1 19-10.1Z"/>
</svg>
